<svg xmlns="http://www.w3.org/2000/svg" viewBox="0 0 100 100">
  <defs>
    <linearGradient id="g1" x1="0" y1="0" x2="0" y2="1">
      <stop offset="0" stop-color="#e8c95c"/><stop offset="1" stop-color="#b8860b"/>
    </linearGradient>
  </defs>
  <circle cx="50" cy="50" r="48" fill="#241028"/>
  <circle cx="50" cy="50" r="46.5" fill="none" stroke="url(#g1)" stroke-width="3"/>
  <g transform="translate(50,52) scale(0.82) translate(-51,-48)">

      <path
        d="M44,8 L52,14 L60,6 L66,15 L76,10 L78,21 L88,20 L86,30 L96,34 L90,42 L98,50 L89,55 L94,66 L83,67 L84,78 L73,76 L70,87 L60,81 L54,90 L47,80 L40,84 L38,72 L44,66 L40,28 Z"
        fill="#171310"
      />
      <path
        d="M46,12 L52,17 L59,11 L64,18 L73,14 L75,23 L84,23 L82,31 L91,35 L86,42 L93,49 L85,53 L89,62 L80,63 L81,73 L71,71 L68,81 L59,76 L54,84 L48,75 L43,78 L42,68 L46,62 L43,30 Z"
        fill="#b57e22"
      />
      <path
        d="M50,18 L55,22 L62,17 L66,24 L74,22 L74,30 L82,32 L78,38 L85,44 L78,48 L82,56 L74,57 L74,66 L66,64 L63,73 L56,68 L52,75 L48,66 L46,58 L48,34 Z"
        fill="#d9a441"
      />
      
      <path
        d="M46,16 L36,22 L28,27 L20,31 L6,34 L8,43 L12,46 L24,49 L30,54 L34,66 L38,74 L44,72 L48,60 L49,30 Z"
        fill="#d9a441"
        stroke="#171310"
        stroke-width="2.4"
        stroke-linejoin="round"
      />
      <path
        d="M8,36 L20,33 L24,40 L22,46 L12,45 L9,43 Z"
        fill="#f0dcae"
        stroke="#171310"
        stroke-width="1.8"
        stroke-linejoin="round"
      />
      <path
        d="M17,31 L25,29 M18,34.5 L26,32.5"
        stroke="#171310"
        stroke-width="1.5"
        stroke-linecap="round"
        fill="none"
      />
      
      <path
        d="M10,44 L24,49 L30,54 L35,65 L27,65 L14,54 Z"
        fill="#4a1420"
        stroke="#171310"
        stroke-width="2.4"
        stroke-linejoin="round"
      />
      <path d="M22,57 L30,62 L34,65 L27,65 Z" fill="#8a2b3d" />
      <path
        d="M13,45 L16,56 L20,47 Z"
        fill="#fff8ea"
        stroke="#171310"
        stroke-width="1.6"
        stroke-linejoin="round"
      />
      <path
        d="M22,48 L24,54 L27,50 Z"
        fill="#fff8ea"
        stroke="#171310"
        stroke-width="1.4"
        stroke-linejoin="round"
      />
      
      <path
        d="M10,66 L22,66 L33,67 L38,74 L31,80 L18,75 L8,70 Z"
        fill="#d9a441"
        stroke="#171310"
        stroke-width="2.4"
        stroke-linejoin="round"
      />
      <path
        d="M18,75 L24,80 L28,76 Z"
        fill="#f0dcae"
        stroke="#171310"
        stroke-width="1.4"
        stroke-linejoin="round"
      />
      <path
        d="M14,64 L17,57 L20,65 Z"
        fill="#fff8ea"
        stroke="#171310"
        stroke-width="1.6"
        stroke-linejoin="round"
      />
      
      <path d="M4,31.5 L16,29.5 L13,40 L6,38 Z" fill="#171310" />
      
      <path d="M26,25 L40,20 L41,26 L29,30.5 Z" fill="#171310" />
      <path d="M31,29 L38,26.5 L39,30.5 L33,32.5 Z" fill="#fff8ea" />
      <circle cx="36" cy="29.3" r="1.7" fill="#171310" />
      
      <path
        d="M42,20 L50,13 L52,24 Z"
        fill="#d9a441"
        stroke="#171310"
        stroke-width="2.2"
        stroke-linejoin="round"
      />
      <path d="M45,20 L49,16.5 L50,22 Z" fill="#171310" />
      
      <path d="M48,48 L40,52 L48,56 Z" fill="#b57e22" />
      <path d="M47,58 L40,62 L48,65 Z" fill="#b57e22" />
    
  </g>
</svg>
